PathFileType	4	(X/Y/Z)	/tmp/tmpjyyagnya//results/MarkerData/Run_5.trc
DataRate	CameraRate	NumFrames	NumMarkers	Units	OrigDataRate	OrigDataStartFrame	OrigNumFrames
120.005	120.005	10	41	m	120.005	141	565
Frame#	Time	C7			CLAV			LACR			LASI			LCAL			LFAradius			LFAsuperior			LFAulna			LLEL			LMEL			LMT5			LPSI			LTB1			LTB2			LTB3			LTH1			LTH2			LTH3			LTOE			LUA1			LUA2			LUA3			RACR			RASI			RCAL			RFAradius			RFAsuperior			RFAulna			RLEL			RMEL			RMT5			RPSI			RTB1			RTB2			RTB3			RTH1			RTH3			RTOE			RUA1			RUA2			RUA3		
		X1	Y1	Z1	X2	Y2	Z2	X3	Y3	Z3	X4	Y4	Z4	X5	Y5	Z5	X6	Y6	Z6	X7	Y7	Z7	X8	Y8	Z8	X9	Y9	Z9	X10	Y10	Z10	X11	Y11	Z11	X12	Y12	Z12	X13	Y13	Z13	X14	Y14	Z14	X15	Y15	Z15	X16	Y16	Z16	X17	Y17	Z17	X18	Y18	Z18	X19	Y19	Z19	X20	Y20	Z20	X21	Y21	Z21	X22	Y22	Z22	X23	Y23	Z23	X24	Y24	Z24	X25	Y25	Z25	X26	Y26	Z26	X27	Y27	Z27	X28	Y28	Z28	X29	Y29	Z29	X30	Y30	Z30	X31	Y31	Z31	X32	Y32	Z32	X33	Y33	Z33	X34	Y34	Z34	X35	Y35	Z35	X36	Y36	Z36	X37	Y37	Z37	X38	Y38	Z38	X39	Y39	Z39	X40	Y40	Z40	X41	Y41	Z41

142	1.19167	0.897211	1.52281	-0.315395	1.0245	1.46774	-0.308095	0.931045	1.48217	-0.504012	1.01594	1.03098	-0.442426	1.21169	0.155997	-0.369279	0.855545	1.15312	-0.497943	0.774647	1.21376	-0.583598	0.834178	1.11732	-0.552602	0.693729	1.31253	-0.601206	0.667598	1.32017	-0.518544	1.41185	0.200253	-0.398079	0.857809	1.06691	-0.361257	1.26215	0.497033	-0.358108	1.24585	0.416702	-0.434888	1.27653	0.325635	-0.360352	1.02549	0.866671	-0.493811	1.13402	0.810972	-0.465161	1.14244	0.681319	-0.441469	1.39869	0.228586	-0.31243	0.826383	1.41545	-0.560637	0.750759	1.41053	-0.537153	0.774039	1.34843	-0.584708	1.01265	1.48423	-0.131528	1.02424	0.992037	-0.212719	0.304679	0.40795	-0.253819	1.0975	1.18148	-0.178407	1.04582	1.19923	-0.06932	1.12211	1.12806	-0.137967	0.951897	1.21683	0.0132805	0.895316	1.18954	-0.0438162	0.318204	0.205589	-0.232726	0.864032	1.06455	-0.263255	0.593586	0.461203	-0.276923	0.52888	0.451459	-0.207486	0.481362	0.401298	-0.271826	0.889293	0.859621	-0.151147	0.737214	0.652348	-0.207488	0.339952	0.211063	-0.326437	0.992667	1.3557	-0.0612548	0.917868	1.34914	-0.0481682	0.971663	1.28551	-0.0139604
143	1.2	0.897967	1.52266	-0.316405	1.02526	1.46791	-0.309099	0.931211	1.48121	-0.504905	1.01554	1.02867	-0.439979	1.23071	0.148835	-0.366818	0.858306	1.15101	-0.499219	0.777008	1.21148	-0.584666	0.837926	1.11534	-0.554249	0.694996	1.30951	-0.601802	0.669108	1.3163	-0.519134	1.42848	0.205075	-0.392912	0.857414	1.0659	-0.361974	1.26079	0.492015	-0.357003	1.2496	0.411107	-0.433468	1.28506	0.322636	-0.357653	1.02276	0.861223	-0.49471	1.13153	0.803787	-0.467138	1.13634	0.673433	-0.441399	1.41186	0.23433	-0.308091	0.826761	1.4132	-0.561037	0.751328	1.40751	-0.537223	0.774871	1.34604	-0.585275	1.01269	1.48383	-0.131905	1.02425	0.994154	-0.211397	0.298231	0.436762	-0.250473	1.09507	1.17607	-0.179665	1.04459	1.19562	-0.0702405	1.11888	1.12265	-0.138759	0.950972	1.21652	0.0122709	0.893517	1.19005	-0.0444109	0.295959	0.234203	-0.230567	0.862955	1.06582	-0.264044	0.591872	0.464385	-0.274925	0.525234	0.461852	-0.205338	0.474134	0.414887	-0.268963	0.890724	0.861427	-0.15154	0.744145	0.646722	-0.206447	0.318322	0.23843	-0.324214	0.992132	1.35522	-0.0618754	0.917363	1.34866	-0.0484694	0.97101	1.28518	-0.0143431
144	1.20833	0.898891	1.52216	-0.317935	1.02603	1.46746	-0.310026	0.932085	1.47989	-0.506039	1.0147	1.02642	-0.437385	1.24282	0.143132	-0.365043	0.862083	1.14742	-0.500553	0.780557	1.2076	-0.585783	0.842578	1.11179	-0.555872	0.697492	1.30503	-0.602625	0.67179	1.31101	-0.519995	1.43847	0.207439	-0.389159	0.856608	1.06365	-0.362461	1.2579	0.486505	-0.355503	1.24957	0.40563	-0.431944	1.28966	0.319574	-0.35528	1.01943	0.85546	-0.495877	1.12805	0.795341	-0.469688	1.12904	0.665134	-0.440814	1.41948	0.236734	-0.304658	0.827842	1.41006	-0.561654	0.752665	1.40342	-0.537516	0.776811	1.34246	-0.585871	1.01234	1.48281	-0.132364	1.02427	0.995612	-0.210123	0.297405	0.466309	-0.248242	1.09216	1.16832	-0.179903	1.04231	1.19039	-0.0706153	1.11441	1.11502	-0.1382	0.948513	1.21552	0.0110168	0.890764	1.18992	-0.0456118	0.276032	0.265043	-0.227643	0.861396	1.06586	-0.26482	0.593138	0.466416	-0.272546	0.52466	0.472516	-0.203043	0.470627	0.427973	-0.26576	0.893817	0.860819	-0.151483	0.752343	0.639698	-0.205297	0.300939	0.266536	-0.32068	0.990553	1.35416	-0.0624131	0.915729	1.34752	-0.0493915	0.969085	1.28397	-0.0149901
145	1.21667	0.899892	1.5212	-0.319813	1.02678	1.46619	-0.31084	0.933622	1.47809	-0.507393	1.01357	1.02434	-0.435189	1.24796	0.137789	-0.3629	0.866846	1.14252	-0.501977	0.785196	1.20223	-0.586983	0.848067	1.10684	-0.557496	0.701114	1.29915	-0.603678	0.67547	1.30446	-0.521094	1.44191	0.206537	-0.387106	0.855513	1.06043	-0.362677	1.25379	0.48062	-0.353893	1.24599	0.399701	-0.430265	1.29048	0.315846	-0.353101	1.01612	0.849701	-0.497196	1.1236	0.785988	-0.471931	1.12155	0.657217	-0.439737	1.42222	0.235396	-0.302536	0.829548	1.40607	-0.562602	0.754652	1.39832	-0.538185	0.779747	1.33771	-0.586579	1.01184	1.48111	-0.133021	1.0243	0.996156	-0.209047	0.302008	0.495871	-0.246971	1.08866	1.15864	-0.179004	1.03881	1.18386	-0.0704025	1.10852	1.10547	-0.136291	0.944594	1.21396	0.00964262	0.887195	1.18924	-0.0473748	0.260464	0.297903	-0.224044	0.859828	1.06455	-0.265445	0.596912	0.467695	-0.270185	0.527788	0.482519	-0.201051	0.470776	0.440793	-0.262953	0.898387	0.857622	-0.151295	0.761406	0.631862	-0.203895	0.288123	0.295352	-0.316327	0.988112	1.35264	-0.0629228	0.913129	1.34602	-0.0510077	0.965995	1.28203	-0.0159029
146	1.225	0.90089	1.51965	-0.321841	1.0275	1.46395	-0.31154	0.935713	1.4757	-0.508915	1.01221	1.02225	-0.433654	1.24639	0.131616	-0.359411	0.872496	1.13645	-0.503499	0.790749	1.19551	-0.588321	0.854293	1.10065	-0.559157	0.705702	1.29197	-0.604952	0.679925	1.29681	-0.522411	1.43903	0.202104	-0.386818	0.854256	1.05651	-0.362696	1.24862	0.474321	-0.352375	1.2397	0.392863	-0.428315	1.28754	0.31077	-0.350829	1.01325	0.844027	-0.498097	1.11857	0.776444	-0.473307	1.11462	0.650173	-0.438042	1.42053	0.230703	-0.30202	0.83181	1.40125	-0.563992	0.757176	1.39225	-0.539395	0.783545	1.33178	-0.587481	1.01136	1.47864	-0.133893	1.02443	0.995679	-0.208352	0.311768	0.524663	-0.246507	1.08441	1.14743	-0.176904	1.03394	1.17634	-0.069618	1.10108	1.09428	-0.1331	0.939357	1.21193	0.00823932	0.882797	1.18809	-0.0495515	0.250981	0.332062	-0.220015	0.85864	1.06187	-0.265916	0.602749	0.46855	-0.267893	0.534597	0.491069	-0.199628	0.474448	0.453465	-0.260913	0.903901	0.852393	-0.151061	0.770999	0.623475	-0.202158	0.28001	0.324733	-0.311749	0.985004	1.3507	-0.0634693	0.909802	1.34437	-0.0532058	0.961879	1.27951	-0.0170818
147	1.23333	0.901838	1.5174	-0.323885	1.02819	1.4607	-0.312149	0.938201	1.47259	-0.510534	1.01065	1.01981	-0.432786	1.23865	0.12384	-0.35435	0.878899	1.12932	-0.505102	0.79701	1.18755	-0.589838	0.861143	1.09334	-0.560858	0.711074	1.28356	-0.606432	0.68495	1.28818	-0.523961	1.43036	0.194292	-0.38792	0.852927	1.0521	-0.362591	1.24225	0.467414	-0.35094	1.23175	0.38498	-0.42606	1.28083	0.303887	-0.348277	1.01089	0.838437	-0.498103	1.11353	0.76752	-0.473699	1.10849	0.643955	-0.435793	1.41457	0.223374	-0.302945	0.834569	1.39559	-0.565833	0.760153	1.38522	-0.541246	0.788101	1.3247	-0.588625	1.01094	1.47535	-0.134883	1.02473	0.994162	-0.208206	0.326379	0.551931	-0.246764	1.07916	1.13489	-0.173658	1.02764	1.16802	-0.068317	1.09203	1.08173	-0.128723	0.932964	1.20947	0.00684839	0.877444	1.18651	-0.0519331	0.248399	0.366392	-0.21584	0.857938	1.05791	-0.266252	0.610455	0.469087	-0.26551	0.544569	0.497864	-0.198698	0.481527	0.46586	-0.259545	0.909579	0.846052	-0.150691	0.780861	0.614538	-0.200134	0.276742	0.354209	-0.307382	0.981402	1.34825	-0.0641114	0.905993	1.34267	-0.0557165	0.956892	1.27649	-0.0185163
148	1.24167	0.902734	1.5144	-0.325879	1.02886	1.4565	-0.312679	0.940931	1.46869	-0.512176	1.00893	1.01667	-0.432528	1.22544	0.114612	-0.348421	0.885923	1.12123	-0.506756	0.803804	1.17848	-0.591539	0.868517	1.08502	-0.562555	0.717079	1.27404	-0.608125	0.690413	1.27863	-0.525789	1.41675	0.183291	-0.38958	0.851588	1.04728	-0.362352	1.23442	0.459556	-0.349504	1.22265	0.3761	-0.423681	1.27055	0.295094	-0.345601	1.00894	0.832969	-0.497147	1.10895	0.759832	-0.473147	1.103	0.638096	-0.433466	1.40439	0.213778	-0.30459	0.837787	1.38905	-0.568018	0.76354	1.37725	-0.543743	0.793345	1.3165	-0.590026	1.01048	1.4712	-0.135826	1.02513	0.991603	-0.208649	0.345314	0.57706	-0.247706	1.07264	1.12105	-0.169441	1.01993	1.159	-0.0665527	1.08142	1.06815	-0.123251	0.925553	1.20661	0.00547912	0.87104	1.18452	-0.0543378	0.252544	0.399643	-0.211756	0.857498	1.05279	-0.266365	0.620068	0.469202	-0.262873	0.557042	0.50312	-0.197903	0.491865	0.477635	-0.258463	0.914664	0.839304	-0.150134	0.790826	0.605021	-0.197961	0.278511	0.382975	-0.303384	0.977432	1.3451	-0.0648698	0.901876	1.34082	-0.0582196	0.951172	1.27294	-0.0201837
149	1.25	0.903619	1.51062	-0.327791	1.02952	1.45149	-0.313118	0.943793	1.46398	-0.513779	1.00718	1.01265	-0.432896	1.20759	0.105183	-0.342754	0.893451	1.11228	-0.508408	0.811022	1.16837	-0.59339	0.876346	1.07576	-0.56416	0.723624	1.26348	-0.610065	0.696264	1.26822	-0.52794	1.39921	0.168979	-0.390766	0.850302	1.04198	-0.361911	1.22504	0.450311	-0.348128	1.21196	0.366179	-0.421495	1.25724	0.284536	-0.343205	1.00716	0.827627	-0.495478	1.10506	0.753591	-0.471615	1.09789	0.632002	-0.431773	1.39022	0.201459	-0.305924	0.841452	1.3816	-0.57038	0.767314	1.36833	-0.546817	0.799211	1.30726	-0.591659	1.00981	1.46622	-0.136559	1.02539	0.987972	-0.209494	0.367744	0.599677	-0.249269	1.06457	1.10591	-0.164468	1.0109	1.14939	-0.064355	1.06933	1.05383	-0.116758	0.917233	1.20337	0.00413349	0.863622	1.18211	-0.0566718	0.262581	0.430742	-0.207924	0.856908	1.04665	-0.266054	0.63167	0.468717	-0.259908	0.571532	0.507313	-0.196809	0.505205	0.488357	-0.257278	0.918714	0.832315	-0.149488	0.800846	0.595059	-0.195767	0.285439	0.410073	-0.299687	0.973134	1.3411	-0.0657087	0.897512	1.33863	-0.0604803	0.944812	1.2688	-0.0220619
150	1.25833	0.904543	1.50608	-0.329588	1.03016	1.44579	-0.313441	0.946769	1.45841	-0.515294	1.0056	1.00759	-0.43392	1.18602	0.097453	-0.338074	0.901382	1.10256	-0.509964	0.818633	1.15733	-0.595336	0.884607	1.06564	-0.565569	0.730676	1.25199	-0.612298	0.702504	1.25697	-0.530439	1.37864	0.151084	-0.390648	0.849121	1.03599	-0.361252	1.21452	0.439374	-0.347073	1.19878	0.355059	-0.419629	1.24174	0.272481	-0.341312	1.00533	0.822241	-0.493456	1.10178	0.748511	-0.469153	1.09292	0.625191	-0.431161	1.37267	0.185341	-0.306001	0.845579	1.37321	-0.57278	0.771469	1.35849	-0.550359	0.80561	1.29706	-0.59347	1.00876	1.46046	-0.136979	1.02516	0.983226	-0.210398	0.392709	0.619637	-0.251312	1.05482	1.08961	-0.158884	1.00067	1.13928	-0.0617439	1.05585	1.03907	-0.109313	0.908092	1.19973	0.00281199	0.855318	1.17929	-0.0589312	0.277465	0.458954	-0.20443	0.855802	1.03957	-0.265145	0.645219	0.467497	-0.25661	0.587838	0.510847	-0.195138	0.521174	0.49762	-0.255779	0.92175	0.824832	-0.148916	0.811012	0.584923	-0.193596	0.297376	0.434665	-0.296156	0.968467	1.33614	-0.066552	0.892861	1.33583	-0.0624302	0.937838	1.26395	-0.0241459
151	1.26667	0.905511	1.50083	-0.331248	1.0308	1.4395	-0.313621	0.949921	1.45198	-0.516704	1.00425	1.00141	-0.435507	1.16154	0.0930381	-0.334233	0.909653	1.0922	-0.511286	0.826669	1.14545	-0.597311	0.893328	1.05482	-0.566697	0.738232	1.23969	-0.61485	0.709132	1.24497	-0.533275	1.35544	0.130017	-0.388928	0.847965	1.02906	-0.36048	1.2037	0.426977	-0.346523	1.18279	0.342881	-0.417753	1.22485	0.259405	-0.339591	1.00322	0.816467	-0.491521	1.09879	0.743823	-0.466251	1.08784	0.617448	-0.431402	1.35242	0.164797	-0.304281	0.850195	1.36384	-0.575157	0.776016	1.34774	-0.554265	0.812439	1.28596	-0.595384	1.00723	1.454	-0.137039	1.02427	0.977389	-0.211059	0.419438	0.636882	-0.253622	1.04342	1.0725	-0.152704	0.98935	1.12878	-0.0587546	1.04097	1.02409	-0.10102	0.898202	1.19567	0.00149831	0.846247	1.17606	-0.0611674	0.29625	0.48386	-0.201314	0.854024	1.03158	-0.263667	0.660533	0.465454	-0.253002	0.605949	0.51382	-0.192879	0.539355	0.505115	-0.253936	0.924175	0.816611	-0.148493	0.821561	0.574819	-0.191361	0.313777	0.456216	-0.292748	0.963333	1.33023	-0.0673239	0.887836	1.33222	-0.0641387	0.930218	1.25832	-0.0264454
